<?xml version="1.0" encoding="iso-8859-1"?>
<!-- Generator: Adobe Illustrator 19.0.0, SVG Export Plug-In . SVG Version: 6.00 Build 0)  -->
<svg version="1.1" id="Capa_1" xmlns="http://www.w3.org/2000/svg" xmlns:xlink="http://www.w3.org/1999/xlink" x="0px" y="0px"
	 viewBox="0 0 512.001 512.001" style="enable-background:new 0 0 512.001 512.001;" xml:space="preserve">
<path style="fill:#F3C849;" d="M44.611,387.378v29.539h29.167c0-21.506,17.434-38.939,38.939-38.939s38.939,17.434,38.939,38.939
	h26.481v-67.545v-115.85c0-7.851-6.364-14.215-14.215-14.215H91.165c-3.445,0-6.766,0.765-9.772,2.156
	c3.006-1.391,6.327-2.156,9.772-2.156h35.059v117.794c0,7.086-5.744,12.83-12.83,12.83H22.192c-0.199,2.056-0.309,4.123-0.309,6.197
	v31.308c0.377-0.033,0.757-0.058,1.142-0.058H44.611z"/>
<path style="fill:#E59F50;" d="M207.273,416.917v-17.016c0-6.018,4.878-10.896,10.896-10.896h110.92
	c1.452,0,2.386,1.541,1.713,2.828l0,0c-4.105,7.857-6.158,16.471-6.158,25.084h30.223c0-21.506,17.434-38.939,38.939-38.939
	s38.939,17.434,38.939,38.939h28.367v-37.823h15.579V361.49c0-6.693-5.426-12.118-12.118-12.118h-85.016h-44.66h-94.902h-61.859
	v67.545H207.273z"/>
<path style="fill:#61BBF2;" d="M126.224,337.101V219.307H91.165c-3.445,0-6.766,0.765-9.772,2.156
	c-0.285,0.132-0.566,0.27-0.845,0.413c-0.504,0.259-1.002,0.529-1.485,0.823c-1.625,0.989-3.127,2.176-4.47,3.536
	c-1.953,1.979-3.568,4.325-4.731,6.964l-42.331,96.093c-0.419,0.951-0.808,1.912-1.18,2.879c-0.128,0.333-0.248,0.67-0.371,1.005
	c-0.232,0.633-0.456,1.269-0.669,1.908c-0.137,0.411-0.272,0.823-0.401,1.237c-0.176,0.566-0.339,1.135-0.5,1.705
	c-0.127,0.451-0.262,0.9-0.379,1.354c-0.16,0.619-0.301,1.242-0.443,1.865c-0.205,0.896-0.391,1.796-0.559,2.699
	c-0.059,0.317-0.12,0.634-0.175,0.952c-0.116,0.678-0.22,1.358-0.314,2.04c-0.037,0.266-0.071,0.533-0.104,0.8
	c-0.092,0.729-0.181,1.46-0.249,2.192h0.005h91.201C120.479,349.931,126.224,344.186,126.224,337.101z"/>
<circle style="fill:#BDD0EC;" cx="112.72" cy="416.92" r="38.939"/>
<path style="fill:#F3C849;" d="M447.847,88.918c6.39-9.82,3.609-22.96-6.211-29.35l0,0c-9.82-6.39-22.96-3.609-29.35,6.211
	l-135.405,208.09H327.5L447.847,88.918z"/>
<circle style="fill:#BDD0EC;" cx="393.81" cy="416.92" r="38.939"/>
<g>
	<path style="fill:#61BBF2;" d="M23.026,439.481h21.586v-22.564v-29.539H23.026c-0.386,0-0.765,0.025-1.142,0.058
		C15.225,388.015,10,393.595,10,400.404v26.052C10,433.649,15.832,439.481,23.026,439.481z"/>
	<path style="fill:#61BBF2;" d="M334.899,311.62v-37.752H327.5h-50.618h-9.531c-15.107,0-27.354,12.247-27.354,27.354v48.149h94.902
		V311.62z"/>
</g>
<path style="fill:#F3C849;" d="M379.558,349.371v-18.667c0-10.54-8.545-19.085-19.085-19.085h-25.575v37.752L379.558,349.371
	L379.558,349.371z"/>
<path style="fill:#E59F50;" d="M434.613,197.388h-2.926c-9.33,0-17.161,7.03-18.164,16.306l-2.122,19.623
	c-0.311,2.873,1.941,5.381,4.831,5.381h33.835c2.89,0,5.141-2.507,4.831-5.381l-2.122-19.623
	C451.774,204.418,443.943,197.388,434.613,197.388z"/>
<g>
	<path style="fill:#61BBF2;" d="M461.114,416.917v12.144h25.393c8.557,0,15.493-6.936,15.493-15.493v-18.98
		c0-8.557-6.937-15.493-15.493-15.493h-9.814h-15.579V416.917z"/>
	<path style="fill:#61BBF2;" d="M330.803,391.832c0.672-1.287-0.261-2.828-1.713-2.828H218.17c-6.018,0-10.896,4.879-10.896,10.896
		v17.016v17.016c0,6.018,4.878,10.896,10.896,10.896h110.92c1.452,0,2.386-1.541,1.713-2.828l0,0
		c-4.105-7.858-6.158-16.471-6.158-25.084S326.698,399.69,330.803,391.832L330.803,391.832z"/>
</g>
<path d="M23.025,449.481h21.586c5.522,0,10-4.477,10-10v-12.564h10.197c4.629,22.205,24.35,38.939,47.909,38.939
	s43.28-16.734,47.909-38.939h17.512h19.136v7.016c0,11.522,9.374,20.896,20.896,20.896h110.92c4.211,0,8.026-2.15,10.207-5.752
	c2.182-3.602,2.318-7.979,0.369-11.707c-1.747-3.344-3.027-6.859-3.861-10.454h10.093c4.629,22.205,24.35,38.939,47.909,38.939
	s43.28-16.734,47.909-38.939h9.398v2.144c0,5.523,4.478,10,10,10h25.394c14.057,0,25.493-11.436,25.493-25.493v-18.98
	c0-13.995-11.336-25.387-25.307-25.488v-7.609c0-12.196-9.923-22.118-22.119-22.118h-75.016v-8.667
	c0-16.038-13.048-29.085-29.085-29.085h-15.575v-27.751c0-2.11-0.657-4.065-1.773-5.678l79.621-122.361v43.001
	c-10.246,3.402-17.945,12.506-19.165,23.789l-2.122,19.624c-0.452,4.188,0.902,8.388,3.716,11.523s6.845,4.933,11.058,4.933h8.778
	v13.396c-13.573,4.261-23.446,16.959-23.446,31.92c0,18.442,15.004,33.446,33.446,33.446c10.189,0,19.696-4.56,26.083-12.509
	c3.459-4.305,2.772-10.6-1.533-14.059c-4.304-3.458-10.598-2.773-14.059,1.533c-2.57,3.2-6.395,5.035-10.491,5.035
	c-7.414,0-13.446-6.032-13.446-13.446c0-7.415,6.032-13.446,13.446-13.446c5.522,0,10-4.477,10-10V248.7h5.057
	c4.212,0,8.242-1.798,11.057-4.933c2.813-3.135,4.168-7.334,3.716-11.523l-2.121-19.624c-1.252-11.578-9.326-20.858-19.973-24.041
	v-73.486l13.482-20.72c4.548-6.988,6.102-15.329,4.375-23.486c-1.726-8.156-6.524-15.153-13.513-19.701
	c-14.428-9.385-33.799-5.288-43.187,9.139L271.458,263.868h-4.108c-20.597,0-37.354,16.757-37.354,37.354v38.149h-41.859v-105.85
	c0-13.352-10.862-24.215-24.215-24.215h-37.699H91.165c-13.185,0-25.139,7.796-30.454,19.862L18.38,325.263
	c-0.477,1.084-0.921,2.18-1.347,3.283c-0.167,0.433-0.324,0.87-0.483,1.306c-0.234,0.642-0.463,1.287-0.68,1.935
	c-0.191,0.57-0.38,1.141-0.557,1.716c-0.139,0.449-0.267,0.9-0.397,1.351c-0.749,2.582-1.36,5.197-1.83,7.84
	c-0.015,0.086-0.032,0.171-0.047,0.257c-0.163,0.94-0.308,1.884-0.437,2.832c-0.016,0.118-0.031,0.237-0.046,0.355
	c-0.116,0.888-0.216,1.779-0.303,2.672c-0.006,0.064-0.016,0.127-0.022,0.191c-0.004,0.042-0.002,0.083-0.005,0.125
	c-0.218,2.317-0.343,4.65-0.343,7.002v24.135C4.803,384.195,0,391.748,0,400.404v26.051C0,439.151,10.329,449.481,23.025,449.481z
	 M442.834,214.769l1.506,13.93h-9.329h-13.052l1.507-13.929c0.455-4.208,3.989-7.381,8.221-7.381h2.927
	C438.845,207.389,442.379,210.562,442.834,214.769z M34.611,406.917v20v2.564H23.025c-1.571,0-2.852-1.209-2.997-2.743
	C20.02,426.643,20,426.552,20,426.455v-26.051c0-1.668,1.357-3.026,3.025-3.026h8.857h2.729V406.917z M139.874,426.917
	c-4.08,11.044-14.713,18.939-27.157,18.939S89.64,437.96,85.56,426.917c-1.152-3.118-1.783-6.487-1.783-10s0.631-6.882,1.783-10
	c4.08-11.044,14.713-18.939,27.157-18.939s23.077,7.895,27.157,18.939c1.152,3.118,1.783,6.487,1.783,10
	S141.026,423.798,139.874,426.917z M315.442,426.917c0.42,2.663,0.998,5.307,1.755,7.913H218.17c-0.494,0-0.896-0.402-0.896-0.896
	v-7.016v-20v-7.016c0-0.494,0.402-0.896,0.896-0.896h99.026c-0.757,2.605-1.335,5.249-1.755,7.912
	C314.398,413.541,314.398,420.291,315.442,426.917z M420.964,426.917c-4.08,11.044-14.713,18.939-27.157,18.939
	s-23.077-7.896-27.157-18.939c-1.152-3.118-1.783-6.487-1.783-10s0.631-6.882,1.783-10c4.08-11.044,14.713-18.939,27.157-18.939
	s23.077,7.895,27.157,18.939c1.152,3.118,1.783,6.487,1.783,10S422.115,423.798,420.964,426.917z M492,394.587v18.98
	c0,3.029-2.464,5.493-5.493,5.493h-0.05h-15.344v-29.966h15.394c0.063,0,0.124,0.007,0.187,0.01
	C489.636,389.203,492,391.621,492,394.587z M360.474,321.62c5.01,0,9.085,4.076,9.085,9.085v8.667h-24.66V321.62H360.474z
	 M420.668,71.232c1.634-2.511,4.146-4.235,7.077-4.854s5.928-0.062,8.438,1.572c2.511,1.633,4.234,4.147,4.854,7.077
	c0.356,1.681,0.311,3.38-0.089,5l-18.202,29.13L322.075,263.868H295.32L420.668,71.232z M249.997,301.222
	c0-7.333,4.579-13.603,11.021-16.14c1.965-0.774,4.096-1.214,6.333-1.214h22.88h18.831h15.837V296.2v15.419v27.752h-74.901v-38.149
	H249.997z M239.997,359.372h94.901h44.66h85.016c1.169,0,2.119,0.95,2.119,2.118v7.604h-5.58c-5.522,0-10,4.477-10,10v27.823h-9.398
	c-4.629-22.205-24.35-38.939-47.909-38.939s-43.28,16.734-47.909,38.939h-10.093c0.835-3.594,2.114-7.108,3.861-10.451
	c1.95-3.731,1.813-8.109-0.368-11.71s-5.997-5.751-10.207-5.751H218.17c-11.522,0-20.896,9.374-20.896,20.896v7.016h-9.136v-47.545
	H239.997z M113.394,359.931c12.589,0,22.83-10.242,22.83-22.83v-12.773c0-5.523-4.478-10-10-10s-10,4.477-10,10v12.773
	c0,1.561-1.27,2.83-2.83,2.83H34.265c0.024-0.08,0.046-0.16,0.07-0.24c0.265-0.875,0.557-1.741,0.864-2.602
	c0.081-0.226,0.154-0.454,0.238-0.679c0.386-1.039,0.797-2.069,1.245-3.085l42.331-96.093c2.121-4.814,6.891-7.925,12.151-7.925
	h25.059v15.02c0,5.523,4.478,10,10,10c5.522,0,10-4.477,10-10v-15.02h27.699c2.324,0,4.215,1.891,4.215,4.215v115.85v57.545h-7.512
	c-4.629-22.205-24.35-38.939-47.909-38.939s-43.28,16.734-47.909,38.939H54.611v-19.539c0-5.523-4.478-10-10-10H31.883v-17.447
	L113.394,359.931L113.394,359.931z"/>
<path d="M136.03,282.374c-0.131-0.64-0.32-1.27-0.57-1.87c-0.25-0.61-0.561-1.19-0.92-1.73c-0.37-0.55-0.78-1.06-1.25-1.52
	c-0.46-0.46-0.971-0.88-1.521-1.24c-0.54-0.36-1.12-0.67-1.72-0.92c-0.61-0.25-1.24-0.44-1.87-0.57c-1.29-0.26-2.62-0.26-3.91,0
	c-0.64,0.13-1.27,0.32-1.87,0.57c-0.6,0.25-1.189,0.56-1.729,0.92c-0.55,0.36-1.061,0.78-1.521,1.24s-0.88,0.97-1.239,1.52
	c-0.36,0.54-0.67,1.12-0.92,1.73c-0.25,0.6-0.44,1.23-0.57,1.87s-0.2,1.3-0.2,1.95c0,2.64,1.07,5.21,2.93,7.07
	c0.46,0.46,0.971,0.88,1.521,1.25c0.54,0.36,1.13,0.67,1.729,0.92c0.601,0.25,1.23,0.44,1.87,0.57c0.641,0.13,1.3,0.19,1.95,0.19
	s1.311-0.06,1.96-0.19c0.63-0.13,1.26-0.32,1.87-0.57c0.6-0.25,1.18-0.56,1.72-0.92c0.55-0.37,1.061-0.79,1.521-1.25
	c1.87-1.86,2.939-4.43,2.939-7.07C136.229,283.674,136.16,283.014,136.03,282.374z"/>
<g>
</g>
<g>
</g>
<g>
</g>
<g>
</g>
<g>
</g>
<g>
</g>
<g>
</g>
<g>
</g>
<g>
</g>
<g>
</g>
<g>
</g>
<g>
</g>
<g>
</g>
<g>
</g>
<g>
</g>
</svg>
